<svg width="20" height="20" viewBox="0 0 20 20" fill="none" xmlns="http://www.w3.org/2000/svg">
<path d="M16.7002 5.68471L11.9002 2.32638C10.5919 1.40971 8.58354 1.45971 7.32524 2.43471L3.15024 5.69304C2.3169 6.34304 1.65857 7.67638 1.65857 8.72633V14.4763C1.65857 16.6013 3.38357 18.3347 5.50857 18.3347H14.4919C16.6169 18.3347 18.3419 16.6097 18.3419 14.4847V8.83467C18.3419 7.70971 17.6169 6.32638 16.7002 5.68471ZM10.6252 15.0013C10.6252 15.343 10.3419 15.6263 10.0002 15.6263C9.65854 15.6263 9.37521 15.343 9.37521 15.0013V12.5013C9.37521 12.1597 9.65854 11.8763 10.0002 11.8763C10.3419 11.8763 10.6252 12.1597 10.6252 12.5013V15.0013Z" fill="#1B212D"/>
</svg>
