<svg width="20" height="20" viewBox="0 0 20 20" fill="none" xmlns="http://www.w3.org/2000/svg">
<path d="M13.15 1.66666H6.84996C3.69996 1.66666 2.91663 2.50833 2.91663 5.86666V15.25C2.91663 17.4667 4.13329 17.9917 5.60829 16.4083L5.61663 16.4C6.29996 15.675 7.34163 15.7333 7.93329 16.525L8.77496 17.65C9.44996 18.5417 10.5416 18.5417 11.2166 17.65L12.0583 16.525C12.6583 15.725 13.7 15.6667 14.3833 16.4C15.8666 17.9833 17.075 17.4583 17.075 15.2417V5.86666C17.0833 2.50833 16.3 1.66666 13.15 1.66666ZM12.2916 8.95833H7.70829C7.36663 8.95833 7.08329 8.675 7.08329 8.33333C7.08329 7.99166 7.36663 7.70833 7.70829 7.70833H12.2916C12.6333 7.70833 12.9166 7.99166 12.9166 8.33333C12.9166 8.675 12.6333 8.95833 12.2916 8.95833Z" fill="#929EAE"/>
</svg>
